<svg width="14.000000" height="14.000000" viewBox="0 0 14 14" fill="none" xmlns="http://www.w3.org/2000/svg" xmlns:xlink="http://www.w3.org/1999/xlink">
	<desc>
			Created with Pixso.
	</desc>
	<defs/>
	<path id="Vector" d="M13 6L8 6L8 1C8 0.447998 7.552 0 7 0C6.448 0 6 0.447998 6 1L6 6L1 6C0.447998 6 0 6.448 0 7C0 7.552 0.447998 8 1 8L6 8L6 13C6 13.552 6.448 14 7 14C7.552 14 8 13.552 8 13L8 8L13 8C13.552 8 14 7.552 14 7C14 6.448 13.552 6 13 6Z" fill="#5E6C84" fill-opacity="1.000000" fill-rule="nonzero"/>
</svg>
