<svg width="26.203979" height="33.445587" viewBox="0 0 26.204 33.4456" fill="none" xmlns="http://www.w3.org/2000/svg" xmlns:xlink="http://www.w3.org/1999/xlink">
	<desc>
			Created with Pixso.
	</desc>
	<defs/>
	<path id="Vector" d="M17.0296 22.5096C16.9128 21.22 16.9576 20.32 16.9576 19.1416C17.5416 18.8352 18.588 16.8816 18.7648 15.2312C19.224 15.1936 19.948 14.7456 20.16 12.9768C20.2744 12.0272 19.82 11.4928 19.5432 11.3248C20.2904 9.07761 21.8424 2.12561 16.6728 1.4072C16.1408 0.472809 14.7784 0 13.008 0C5.9248 0.130402 5.07037 5.34879 6.62317 11.3248C6.34723 11.4928 5.89282 12.0272 6.00641 12.9768C6.21918 14.7456 6.94238 15.1936 7.40161 15.2312C7.57758 16.8808 8.66559 18.8352 9.25122 19.1416C9.25122 20.32 9.29523 21.22 9.17841 22.5096C8.16962 25.2216 2.98877 25.4336 0 28.0488C3.12482 31.1952 8.18878 33.4456 13.5328 33.4456C18.8768 33.4456 25.1584 29.2264 26.204 28.0752C23.2336 25.436 18.0408 25.2312 17.0296 22.5096Z" fill="#000000" fill-opacity="1.000000" fill-rule="nonzero"/>
</svg>
